# xmcd
#
# Track frame offsets: 
#        150
#        11800
#        24395
#        36237
#        48957
#        60535
#        72845
#        85097
#        95742
#        107392
#        119017
#        131410
#        143967
#        156132
#        168037
#        180080
#        191430
#        202537
#        214287
#        225065
#        235925
#        247712
#        259677
#        270460
#        281545
#        292122
#        303705
#        313890
#        325005
#
# Disc length: 4495 seconds
#
# Revision: 3
# Processed by: cddbd v1.5.2PL0 Copyright (c) Steve Scherf et al.
# Submitted via: ExactAudioCopy v1.1
#
DISCID=86118d1d
DTITLE=Bob Wills and His Texas Playboys - San Antonio Rose - Disc 4
DYEAR=2000
DGENRE=Country
TTITLE0=Moonlight And Roses (mono)
TTITLE1=William Tell (mono)
TTITLE2=I Wish I Could Shimmy Like My Sister Kate (mono)
TTITLE3=Mississippi Delta Blues (1938) (mono)
TTITLE4=Tulsa Stomp (1938) (mono)
TTITLE5=Empty Bed Blues (mono)
TTITLE6=Little Red Head (mono)
TTITLE7=I'll See You In My Dreams (mono)
TTITLE8=San Antonio Rose (mono)
TTITLE9=Little Girl, Go Ask Your Mama (mono)
TTITLE10=Carolina In The Morning (mono)
TTITLE11=The Convict And The Rose (mono)
TTITLE12=Silver Bells (mono)
TTITLE13=Dreamy Eyes Waltz (mono)
TTITLE14=Beaumont Rag (mono)
TTITLE15=Twinkle, Twinkle Little Star (mono)
TTITLE16=If I Could Bring Back My Buddy (mono)
TTITLE17=Whoa Babe (mono)
TTITLE18=Ida Red (mono)
TTITLE19=Yearning (mono)
TTITLE20=I Wonder If You Feel The Way I Do (mono)
TTITLE21=Prosperity Special (mono)
TTITLE22=Drunkard's Blues (mono)
TTITLE23=You're Okay (mono)
TTITLE24=Liza Pull Down The Shades (mono)
TTITLE25=That's What I Like 'Bout The South (mono)
TTITLE26=My Window Faces South (mono)
TTITLE27=The Waltz You Saved For Me (mono)
TTITLE28=Don't Let The Deal Go Down (mono)
EXTD=
EXTT0=
EXTT1=
EXTT2=
EXTT3=
EXTT4=
EXTT5=
EXTT6=
EXTT7=
EXTT8=
EXTT9=
EXTT10=
EXTT11=
EXTT12=
EXTT13=
EXTT14=
EXTT15=
EXTT16=
EXTT17=
EXTT18=
EXTT19=
EXTT20=
EXTT21=
EXTT22=
EXTT23=
EXTT24=
EXTT25=
EXTT26=
EXTT27=
EXTT28=
PLAYORDER=
